<svg width="347" height="72" viewBox="0 0 347 72" fill="none" xmlns="http://www.w3.org/2000/svg">
<path d="M109.967 30.21C109.967 26.5404 107.51 24.4879 102.877 24.4879C100.42 24.4879 97.8077 25.1721 95.1332 26.5093C95.0399 26.5715 94.9155 26.6026 94.7912 26.6648C93.8582 27.1624 92.6765 26.7892 92.1789 25.8562L90.8727 23.3684C90.3752 22.4354 90.7483 21.2537 91.6813 20.7561C92.1167 20.5384 92.4588 20.3518 92.7698 20.1963C96.6571 18.2993 100.047 17.4907 104.649 17.4907C113.233 17.4907 118.239 21.8445 118.302 29.246L118.364 48.7448C118.364 49.8021 117.493 50.6729 116.436 50.6729H111.958C110.9 50.6729 110.029 49.8021 110.029 48.7448V47.2209C107.728 49.7399 104.183 51.046 99.7669 51.046C92.8009 51.046 88.105 46.7855 88.105 40.7213C88.105 34.6571 92.7698 30.7698 100.731 30.7076H109.936V30.1478L109.967 30.21ZM102.037 36.5852C97.901 36.5852 96.1595 37.6737 96.1595 40.3171C96.1595 42.9604 98.2431 44.5154 101.664 44.5154C106.049 44.5154 109.563 42.2141 109.967 39.2286V36.5852H102.037ZM141.315 17.584C150.675 17.584 156.988 24.3635 156.988 34.4394C156.988 44.5154 150.8 51.046 141.439 51.046C136.805 51.046 133.105 49.3045 130.648 46.0703V60.5622C130.648 61.6195 129.777 62.4903 128.72 62.4903H124.117C123.06 62.4903 122.189 61.6195 122.189 60.5622V19.7609C122.189 18.7036 123.06 17.8328 124.117 17.8328H128.72C129.777 17.8328 130.648 18.7036 130.648 19.7609V22.5598C133.073 19.3256 136.743 17.584 141.315 17.584ZM139.542 43.7068C144.735 43.7068 148.405 39.7884 148.405 34.1906C148.405 28.5929 144.735 24.7367 139.542 24.7367C134.348 24.7367 130.617 28.6551 130.617 34.1906C130.617 39.7262 134.255 43.7068 139.542 43.7068ZM180.125 17.584C189.486 17.584 195.799 24.3635 195.799 34.4394C195.799 44.5154 189.611 51.046 180.25 51.046C175.616 51.046 171.915 49.3045 169.459 46.0703V60.5622C169.459 61.6195 168.588 62.4903 167.531 62.4903H162.928C161.871 62.4903 161 61.6195 161 60.5622V19.7609C161 18.7036 161.871 17.8328 162.928 17.8328H167.531C168.588 17.8328 169.459 18.7036 169.459 19.7609V22.5598C171.884 19.3256 175.554 17.584 180.125 17.584ZM178.353 43.7068C183.546 43.7068 187.216 39.7884 187.216 34.1906C187.216 28.5929 183.546 24.7367 178.353 24.7367C173.159 24.7367 169.428 28.6551 169.428 34.1906C169.428 39.7262 173.066 43.7068 178.353 43.7068ZM223.539 27.4112C221.611 25.8562 219.185 25.0166 216.386 25.0166C211.286 25.0166 207.772 28.7795 207.772 34.2839C207.772 39.7884 211.255 43.6757 216.386 43.6757C218.999 43.6757 221.238 43.0537 222.979 41.8409C223.228 41.6543 223.57 41.3744 223.912 41.0323C224.627 40.3482 225.747 40.286 226.493 40.9079L228.95 42.9293C229.79 43.6135 229.883 44.8263 229.199 45.6349C229.199 45.6349 229.189 45.6453 229.168 45.666C228.639 46.288 228.173 46.7544 227.8 47.0654C224.814 49.6155 220.74 50.9838 215.951 50.9838C206.062 50.9838 199.251 44.2044 199.251 34.315C199.251 24.4257 206.093 17.5218 216.075 17.5218C221.393 17.5218 225.871 19.2323 228.919 22.4043C229.603 23.1196 229.572 24.208 228.888 24.8922L226.245 27.3801C225.529 28.0642 224.41 28.0953 223.663 27.4423C223.632 27.4112 223.57 27.3801 223.539 27.349V27.4112ZM238.715 4.21167C241.358 4.21167 243.255 6.13978 243.255 8.84535C243.255 11.5509 241.358 13.479 238.715 13.479C236.072 13.479 234.175 11.5509 234.175 8.84535C234.175 6.13978 236.072 4.21167 238.715 4.21167ZM236.414 17.8328H241.016C242.074 17.8328 242.945 18.7036 242.945 19.7609V48.8069C242.945 49.8643 242.074 50.7351 241.016 50.7351H236.414C235.356 50.7351 234.486 49.8643 234.486 48.8069V19.7609C234.486 18.7036 235.356 17.8328 236.414 17.8328ZM264.745 17.7395C264.745 17.7395 265.087 17.6773 265.273 17.6773C266.331 17.5529 267.295 18.3304 267.419 19.3877C267.419 19.4499 267.419 19.5432 267.419 19.6054V23.8037C267.419 24.8611 266.579 25.7007 265.522 25.7318C265.242 25.7318 265.024 25.7318 264.838 25.7629C259.582 26.2605 256.348 29.7747 256.348 34.9059V48.8691C256.348 49.9265 255.477 50.7973 254.42 50.7973H249.817C248.76 50.7973 247.889 49.9265 247.889 48.8691V19.8231C247.889 18.7658 248.76 17.895 249.817 17.895H254.42C255.477 17.895 256.348 18.7658 256.348 19.8231V23.3373C258.245 20.2585 261.106 18.3926 264.745 17.7706V17.7395ZM292.827 27.5356C292.391 27.1624 292.018 26.8825 291.707 26.6648C289.965 25.5764 287.913 25.0166 285.612 25.0166C280.512 25.0166 276.997 28.7795 276.997 34.2839C276.997 39.7884 280.48 43.6757 285.612 43.6757C288.068 43.6757 290.183 43.1159 291.862 42.0586C292.205 41.8409 292.64 41.4677 293.138 41.0012C293.853 40.3171 294.972 40.286 295.719 40.9079L298.175 42.9293C299.015 43.6135 299.108 44.8263 298.424 45.6349C298.424 45.6349 298.414 45.6453 298.393 45.666C297.771 46.3813 297.243 46.9099 296.776 47.2831C293.822 49.7088 289.841 50.9838 285.145 50.9838C275.256 50.9838 268.445 44.2044 268.445 34.315C268.445 24.4257 275.287 17.5218 285.27 17.5218C290.09 17.5218 294.195 18.9213 297.211 21.5335C297.429 21.7201 297.709 21.9689 297.989 22.2799C298.735 23.0574 298.704 24.2702 297.927 25.0166L295.408 27.3801C294.692 28.0642 293.573 28.0953 292.827 27.4423V27.5356ZM304.271 5.30012H308.873C309.931 5.30012 310.801 6.17088 310.801 7.22823V48.8069C310.801 49.8643 309.931 50.7351 308.873 50.7351H304.271C303.213 50.7351 302.343 49.8643 302.343 48.8069V7.22823C302.343 6.17088 303.213 5.30012 304.271 5.30012ZM331.917 44.1422C334.499 44.1422 336.955 43.3647 338.977 41.9031C339.101 41.8098 339.226 41.7165 339.35 41.6232C340.127 40.9701 341.278 41.0323 341.993 41.7787L343.984 43.8312C344.73 44.6086 344.699 45.8215 343.921 46.5679C343.921 46.5679 343.89 46.599 343.859 46.6301C343.082 47.3142 342.46 47.8118 341.931 48.1539C338.946 50.082 335.307 51.0771 331.264 51.0771C321.064 51.0771 314.253 44.3599 314.253 34.4083C314.253 24.4568 321.126 17.6151 331.078 17.6151C341.029 17.6151 346.938 23.7104 347 34.5327C347 34.7815 347 35.0925 347 35.4968C347 36.5541 346.098 37.3627 345.072 37.3627H322.992C324.081 41.6232 327.439 44.2044 331.948 44.2044L331.917 44.1422ZM339.163 31.4851C338.883 27.0069 335.805 24.2391 331.109 24.2391C326.693 24.2391 323.552 27.0069 322.743 31.4851H339.163Z" fill="#1A3352"/>
<path fill-rule="evenodd" clip-rule="evenodd" d="M26.0324 51.0146C31.5057 55.4928 32.4387 60.2198 28.8001 65.2577C24.3219 71.2908 16.0497 73.4988 9.02148 70.1091H8.95928C8.95928 70.1091 8.92818 70.078 8.89708 70.0469C1.02916 66.1907 -2.23619 56.6745 1.62003 48.8066L10.3587 30.9872L15.2723 20.9734L21.181 8.9383C24.0421 3.09178 30.0441 -0.235763 36.1705 0.0130251C42.0792 0.0130251 47.7702 3.27837 50.5691 8.9383L70.1301 48.8066C73.9863 56.6745 70.7209 66.1907 62.853 70.0469C62.853 70.0469 62.8219 70.0469 62.7908 70.0469H62.7286C54.8918 73.872 45.4689 70.7 41.5505 62.9564C39.5291 58.6959 40.8664 54.6531 45.6244 50.8591C49.2008 47.9669 51.471 43.5821 51.471 38.6374C51.471 29.9609 44.4427 22.9326 35.7351 22.9326C27.0275 22.9326 19.9993 29.9609 19.9993 38.6374C19.9993 43.6753 22.3627 48.1535 26.0324 51.0146ZM35.7351 46.8785C31.1636 46.8785 27.4629 43.1778 27.4629 38.6063C27.4629 34.0348 31.1636 30.3341 35.7351 30.3341C40.3066 30.3341 44.0073 34.0348 44.0073 38.6063C44.0073 43.1778 40.3066 46.8785 35.7351 46.8785Z" fill="url(#paint0_linear_9_502)"/>
<defs>
<linearGradient id="paint0_linear_9_502" x1="35.8595" y1="-0.0180734" x2="35.8595" y2="71.6951" gradientUnits="userSpaceOnUse">
<stop stop-color="#FFBD59"/>
<stop offset="1" stop-color="#FF780B"/>
</linearGradient>
</defs>
</svg>
